<svg width="622" height="274" viewBox="0 0 622 274" fill="none" xmlns="http://www.w3.org/2000/svg">
<g filter="url(#filter0_d)">
<path d="M53.8518 44.231C58.45 44.231 62.2818 45.7637 65.3473 48.8292C68.4592 51.8947 70.0152 55.7033 70.0152 60.2551C70.0152 64.7604 68.4592 68.5691 65.3473 71.681C62.2818 74.7465 58.45 76.2792 53.8518 76.2792H43.8889V93H35.8769V44.231H53.8518ZM53.8518 68.7548C56.2205 68.7548 58.1713 67.9652 59.704 66.3861C61.2368 64.7604 62.0032 62.7168 62.0032 60.2551C62.0032 57.7934 61.2368 55.773 59.704 54.1938C58.1713 52.5682 56.2205 51.7554 53.8518 51.7554H43.8889V68.7548H53.8518ZM79.9562 78.7873C80.5136 81.4348 81.7909 83.4784 83.7881 84.9183C85.7853 86.3117 88.2237 87.0084 91.1034 87.0084C95.0979 87.0084 98.0937 85.5685 100.091 82.6888L106.291 86.3117C102.854 91.3744 97.7685 93.9057 91.0338 93.9057C85.3673 93.9057 80.7923 92.1872 77.3088 88.7501C73.8253 85.2666 72.0835 80.8774 72.0835 75.5825C72.0835 70.3805 73.8021 66.0377 77.2391 62.5542C80.6762 59.0243 85.0886 57.2593 90.4764 57.2593C95.5855 57.2593 99.7657 59.0475 103.017 62.6239C106.315 66.2003 107.964 70.543 107.964 75.6522C107.964 76.4418 107.871 77.4868 107.685 78.7873H79.9562ZM79.8866 72.6564H100.37C99.8586 69.8231 98.6742 67.6866 96.8164 66.2467C95.005 64.8069 92.8684 64.0869 90.4067 64.0869C87.6199 64.0869 85.2976 64.8533 83.4397 66.3861C81.5819 67.9188 80.3975 70.0089 79.8866 72.6564ZM150.116 58.165V93H142.801V70.0786L132.768 86.033H131.863L121.9 70.1482V93H114.584V58.165H122.248L132.35 74.2588L142.452 58.165H150.116ZM175.251 93.9057C170.142 93.9057 165.799 92.1407 162.222 88.6108C158.646 85.0808 156.858 80.7381 156.858 75.5825C156.858 70.4269 158.646 66.0842 162.222 62.5542C165.799 59.0243 170.142 57.2593 175.251 57.2593C180.406 57.2593 184.749 59.0243 188.279 62.5542C191.855 66.0842 193.644 70.4269 193.644 75.5825C193.644 80.7381 191.855 85.0808 188.279 88.6108C184.749 92.1407 180.406 93.9057 175.251 93.9057ZM167.517 83.4552C169.607 85.5453 172.185 86.5904 175.251 86.5904C178.316 86.5904 180.894 85.5453 182.984 83.4552C185.074 81.3651 186.119 78.7409 186.119 75.5825C186.119 72.4241 185.074 69.7999 182.984 67.7098C180.894 65.6197 178.316 64.5746 175.251 64.5746C172.185 64.5746 169.607 65.6197 167.517 67.7098C165.427 69.7999 164.382 72.4241 164.382 75.5825C164.382 78.7409 165.427 81.3651 167.517 83.4552ZM223.926 58.165H231.45V93H223.926V79.1357H207.972V93H200.447V58.165H207.972V72.0293H223.926V58.165ZM266.795 58.165V65.4107H255.439V93H247.914V65.4107H236.488V58.165H266.795ZM315.918 58.165V65.4107H304.561V93H297.037V65.4107H285.611V58.165H315.918ZM325.57 78.7873C326.128 81.4348 327.405 83.4784 329.402 84.9183C331.399 86.3117 333.838 87.0084 336.717 87.0084C340.712 87.0084 343.708 85.5685 345.705 82.6888L351.905 86.3117C348.468 91.3744 343.382 93.9057 336.648 93.9057C330.981 93.9057 326.406 92.1872 322.923 88.7501C319.439 85.2666 317.697 80.8774 317.697 75.5825C317.697 70.3805 319.416 66.0377 322.853 62.5542C326.29 59.0243 330.703 57.2593 336.09 57.2593C341.199 57.2593 345.38 59.0475 348.631 62.6239C351.929 66.2003 353.578 70.543 353.578 75.6522C353.578 76.4418 353.485 77.4868 353.299 78.7873H325.57ZM325.501 72.6564H345.984C345.473 69.8231 344.288 67.6866 342.43 66.2467C340.619 64.8069 338.482 64.0869 336.021 64.0869C333.234 64.0869 330.912 64.8533 329.054 66.3861C327.196 67.9188 326.011 70.0089 325.501 72.6564ZM389.572 93H380.863L372.224 81.0864L363.515 93H354.737L367.835 75.0948L355.434 58.165H364.142L372.154 69.1729L380.166 58.165H388.945L376.544 75.1645L389.572 93ZM418.104 58.165H425.628V93H418.104V79.1357H402.15V93H394.625V58.165H402.15V72.0293H418.104V58.165ZM459.579 58.165H465.362V93H457.977V70.8449L440.141 93H434.359V58.165H441.744V80.2504L459.579 58.165ZM504.887 93H495.899L481.617 76.9062V93H474.092V58.165H481.617V73.5621L495.133 58.165H504.329L489.002 75.2341L504.887 93ZM535.169 58.165H540.951V93H533.566V70.8449L515.731 93H509.948V58.165H517.333V80.2504L535.169 58.165ZM84.8249 185L81.4748 173.721H55.4557L52.1056 185H30.4416L56.2374 106.831H80.5815L106.377 185H84.8249ZM60.5926 156.524H76.338L68.4095 129.947L60.5926 156.524ZM145.674 127.602C153.118 127.602 159.335 130.431 164.323 136.089C169.385 141.672 171.916 148.67 171.916 157.083C171.916 165.495 169.385 172.53 164.323 178.188C159.335 183.772 153.118 186.563 145.674 186.563C138.899 186.563 133.613 184.33 129.817 179.863V207.334H111.279V129.165H129.817V134.302C133.613 129.835 138.899 127.602 145.674 127.602ZM133.055 165.904C135.214 168.138 138.043 169.255 141.542 169.255C145.041 169.255 147.87 168.138 150.029 165.904C152.188 163.671 153.267 160.73 153.267 157.083C153.267 153.435 152.188 150.494 150.029 148.261C147.87 146.027 145.041 144.91 141.542 144.91C138.043 144.91 135.214 146.027 133.055 148.261C130.896 150.494 129.817 153.435 129.817 157.083C129.817 160.73 130.896 163.671 133.055 165.904ZM214.377 127.602C221.822 127.602 228.038 130.431 233.026 136.089C238.088 141.672 240.619 148.67 240.619 157.083C240.619 165.495 238.088 172.53 233.026 178.188C228.038 183.772 221.822 186.563 214.377 186.563C207.602 186.563 202.317 184.33 198.52 179.863V207.334H179.983V129.165H198.52V134.302C202.317 129.835 207.602 127.602 214.377 127.602ZM201.758 165.904C203.917 168.138 206.746 169.255 210.245 169.255C213.744 169.255 216.573 168.138 218.732 165.904C220.891 163.671 221.971 160.73 221.971 157.083C221.971 153.435 220.891 150.494 218.732 148.261C216.573 146.027 213.744 144.91 210.245 144.91C206.746 144.91 203.917 146.027 201.758 148.261C199.599 150.494 198.52 153.435 198.52 157.083C198.52 160.73 199.599 163.671 201.758 165.904ZM248.686 185V103.481H267.223V185H248.686ZM294.33 163.894C296.191 168.436 300.36 170.706 306.837 170.706C310.857 170.706 314.245 169.403 316.999 166.798L330.399 176.178C324.89 183.102 316.887 186.563 306.39 186.563C296.936 186.563 289.342 183.809 283.61 178.3C277.952 172.716 275.123 165.681 275.123 157.194C275.123 148.782 277.915 141.746 283.498 136.089C289.082 130.431 296.191 127.602 304.827 127.602C313.165 127.602 320.051 130.393 325.486 135.977C330.921 141.56 333.638 148.558 333.638 156.971C333.638 159.428 333.377 161.735 332.856 163.894H294.33ZM294.107 151.052H315.547C314.058 145.841 310.559 143.235 305.05 143.235C299.318 143.235 295.67 145.841 294.107 151.052Z" fill="#2F3C44"/>
</g>
<defs>
<filter id="filter0_d" x="0.991417" y="0.695828" width="620.628" height="273.221" filterUnits="userSpaceOnUse" color-interpolation-filters="sRGB">
<feFlood flood-opacity="0" result="BackgroundImageFix"/>
<feColorMatrix in="SourceAlpha" type="matrix" values="0 0 0 0 0 0 0 0 0 0 0 0 0 0 0 0 0 0 127 0"/>
<feOffset dx="25.6089" dy="11.524"/>
<feGaussianBlur stdDeviation="27.5296"/>
<feColorMatrix type="matrix" values="0 0 0 0 0 0 0 0 0 0 0 0 0 0 0 0 0 0 0.02 0"/>
<feBlend mode="normal" in2="BackgroundImageFix" result="effect1_dropShadow"/>
<feBlend mode="normal" in="SourceGraphic" in2="effect1_dropShadow" result="shape"/>
</filter>
</defs>
</svg>
