<svg width="384" height="226" viewBox="0 0 384 226" fill="none" xmlns="http://www.w3.org/2000/svg">
<g filter="url(#filter0_d)">
<path d="M43.12 44C45.76 44 47.96 44.88 49.72 46.64C51.5067 48.4 52.4 50.5867 52.4 53.2C52.4 55.7867 51.5067 57.9733 49.72 59.76C47.96 61.52 45.76 62.4 43.12 62.4H37.4V72H32.8V44H43.12ZM43.12 58.08C44.48 58.08 45.6 57.6267 46.48 56.72C47.36 55.7867 47.8 54.6133 47.8 53.2C47.8 51.7867 47.36 50.6267 46.48 49.72C45.6 48.7867 44.48 48.32 43.12 48.32H37.4V58.08H43.12ZM58.1075 63.84C58.4275 65.36 59.1608 66.5333 60.3075 67.36C61.4542 68.16 62.8542 68.56 64.5075 68.56C66.8008 68.56 68.5208 67.7333 69.6675 66.08L73.2275 68.16C71.2542 71.0667 68.3342 72.52 64.4675 72.52C61.2142 72.52 58.5875 71.5333 56.5875 69.56C54.5875 67.56 53.5875 65.04 53.5875 62C53.5875 59.0133 54.5742 56.52 56.5475 54.52C58.5208 52.4933 61.0542 51.48 64.1475 51.48C67.0808 51.48 69.4808 52.5067 71.3475 54.56C73.2408 56.6133 74.1875 59.1067 74.1875 62.04C74.1875 62.4933 74.1342 63.0933 74.0275 63.84H58.1075ZM58.0675 60.32H69.8275C69.5342 58.6933 68.8542 57.4667 67.7875 56.64C66.7475 55.8133 65.5208 55.4 64.1075 55.4C62.5075 55.4 61.1742 55.84 60.1075 56.72C59.0408 57.6 58.3608 58.8 58.0675 60.32ZM98.3888 52V72H94.1888V58.84L88.4288 68H87.9088L82.1888 58.88V72H77.9888V52H82.3888L88.1888 61.24L93.9888 52H98.3888ZM112.819 72.52C109.886 72.52 107.393 71.5067 105.339 69.48C103.286 67.4533 102.259 64.96 102.259 62C102.259 59.04 103.286 56.5467 105.339 54.52C107.393 52.4933 109.886 51.48 112.819 51.48C115.779 51.48 118.273 52.4933 120.299 54.52C122.353 56.5467 123.379 59.04 123.379 62C123.379 64.96 122.353 67.4533 120.299 69.48C118.273 71.5067 115.779 72.52 112.819 72.52ZM108.379 66.52C109.579 67.72 111.059 68.32 112.819 68.32C114.579 68.32 116.059 67.72 117.259 66.52C118.459 65.32 119.059 63.8133 119.059 62C119.059 60.1867 118.459 58.68 117.259 57.48C116.059 56.28 114.579 55.68 112.819 55.68C111.059 55.68 109.579 56.28 108.379 57.48C107.179 58.68 106.579 60.1867 106.579 62C106.579 63.8133 107.179 65.32 108.379 66.52ZM140.766 52H145.086V72H140.766V64.04H131.606V72H127.286V52H131.606V59.96H140.766V52ZM165.378 52V56.16H158.858V72H154.538V56.16H147.978V52H165.378ZM193.581 52V56.16H187.061V72H182.741V56.16H176.181V52H193.581ZM199.123 63.84C199.443 65.36 200.176 66.5333 201.323 67.36C202.47 68.16 203.87 68.56 205.523 68.56C207.816 68.56 209.536 67.7333 210.683 66.08L214.243 68.16C212.27 71.0667 209.35 72.52 205.483 72.52C202.23 72.52 199.603 71.5333 197.603 69.56C195.603 67.56 194.603 65.04 194.603 62C194.603 59.0133 195.59 56.52 197.563 54.52C199.536 52.4933 202.07 51.48 205.163 51.48C208.096 51.48 210.496 52.5067 212.363 54.56C214.256 56.6133 215.203 59.1067 215.203 62.04C215.203 62.4933 215.15 63.0933 215.043 63.84H199.123ZM199.083 60.32H210.843C210.55 58.6933 209.87 57.4667 208.803 56.64C207.763 55.8133 206.536 55.4 205.123 55.4C203.523 55.4 202.19 55.84 201.123 56.72C200.056 57.6 199.376 58.8 199.083 60.32ZM235.869 72H230.869L225.909 65.16L220.909 72H215.869L223.389 61.72L216.269 52H221.269L225.869 58.32L230.469 52H235.509L228.389 61.76L235.869 72ZM252.25 52H256.57V72H252.25V64.04H243.09V72H238.77V52H243.09V59.96H252.25V52ZM276.063 52H279.383V72H275.143V59.28L264.903 72H261.583V52H265.823V64.68L276.063 52ZM302.075 72H296.915L288.715 62.76V72H284.395V52H288.715V60.84L296.475 52H301.755L292.955 61.8L302.075 72ZM319.461 52H322.781V72H318.541V59.28L308.301 72H304.981V52H309.221V64.68L319.461 52ZM62.96 146L60.272 137.936H42.416L39.728 146H30.192L45.872 101.2H56.816L72.56 146H62.96ZM45.232 129.68H57.52L51.376 111.376L45.232 129.68ZM95.15 113.104C99.4593 113.104 103.129 114.747 106.158 118.032C109.23 121.275 110.766 125.264 110.766 130C110.766 134.736 109.23 138.747 106.158 142.032C103.129 145.275 99.4593 146.896 95.15 146.896C90.67 146.896 87.214 145.339 84.782 142.224V158.8H76.526V114H84.782V117.776C87.214 114.661 90.67 113.104 95.15 113.104ZM87.278 136.528C88.942 138.192 91.054 139.024 93.614 139.024C96.174 139.024 98.286 138.192 99.95 136.528C101.657 134.821 102.51 132.645 102.51 130C102.51 127.355 101.657 125.2 99.95 123.536C98.286 121.829 96.174 120.976 93.614 120.976C91.054 120.976 88.942 121.829 87.278 123.536C85.614 125.2 84.782 127.355 84.782 130C84.782 132.645 85.614 134.821 87.278 136.528ZM135.213 113.104C139.522 113.104 143.191 114.747 146.221 118.032C149.293 121.275 150.829 125.264 150.829 130C150.829 134.736 149.293 138.747 146.221 142.032C143.191 145.275 139.522 146.896 135.213 146.896C130.733 146.896 127.277 145.339 124.845 142.224V158.8H116.589V114H124.845V117.776C127.277 114.661 130.733 113.104 135.213 113.104ZM127.341 136.528C129.005 138.192 131.117 139.024 133.677 139.024C136.237 139.024 138.349 138.192 140.013 136.528C141.719 134.821 142.573 132.645 142.573 130C142.573 127.355 141.719 125.2 140.013 123.536C138.349 121.829 136.237 120.976 133.677 120.976C131.117 120.976 129.005 121.829 127.341 123.536C125.677 125.2 124.845 127.355 124.845 130C124.845 132.645 125.677 134.821 127.341 136.528ZM156.651 146V99.28H164.907V146H156.651ZM179.44 133.392C180.549 137.403 183.557 139.408 188.464 139.408C191.621 139.408 194.01 138.341 195.632 136.208L202.288 140.048C199.13 144.613 194.48 146.896 188.336 146.896C183.045 146.896 178.8 145.296 175.6 142.096C172.4 138.896 170.799 134.864 170.799 130C170.799 125.179 172.378 121.168 175.536 117.968C178.693 114.725 182.746 113.104 187.696 113.104C192.389 113.104 196.25 114.725 199.28 117.968C202.352 121.211 203.888 125.221 203.888 130C203.888 131.067 203.781 132.197 203.568 133.392H179.44ZM179.312 126.992H195.632C195.162 124.816 194.181 123.195 192.688 122.128C191.237 121.061 189.573 120.528 187.696 120.528C185.477 120.528 183.642 121.104 182.192 122.256C180.741 123.365 179.781 124.944 179.312 126.992Z" fill="#2F3C44"/>
</g>
<defs>
<filter id="filter0_d" x="0.741753" y="0.464871" width="402.707" height="224.918" filterUnits="userSpaceOnUse" color-interpolation-filters="sRGB">
<feFlood flood-opacity="0" result="BackgroundImageFix"/>
<feColorMatrix in="SourceAlpha" type="matrix" values="0 0 0 0 0 0 0 0 0 0 0 0 0 0 0 0 0 0 127 0"/>
<feOffset dx="25.6089" dy="11.524"/>
<feGaussianBlur stdDeviation="27.5296"/>
<feColorMatrix type="matrix" values="0 0 0 0 0 0 0 0 0 0 0 0 0 0 0 0 0 0 0.02 0"/>
<feBlend mode="normal" in2="BackgroundImageFix" result="effect1_dropShadow"/>
<feBlend mode="normal" in="SourceGraphic" in2="effect1_dropShadow" result="shape"/>
</filter>
</defs>
</svg>
